# xmcd
#
# Track frame offsets:
#	150
#	29508
#	49458
#	62938
#	81780
#	106793
#	128290
#	150463
#	173378
#	190113
#
# Disc length: 2815 seconds
#
# Revision: 48
# Processed by: cddbd v1.5.2PL0 Copyright (c) Steve Scherf et al.
# Submitted via: Jack! The Knife 19 Blackthorn
#
DISCID=730afd0a
DTITLE=Eagles - Eagles Greatest Hits, Vol. 2
DYEAR=1982
DGENRE=Rock
TTITLE0=Hotel California
TTITLE1=Heartache Tonight
TTITLE2=Seven Bridges Road
TTITLE3=Victim Of Love
TTITLE4=The Sad Café
TTITLE5=Life In The Fast Lane
TTITLE6=I Can't Tell You Why
TTITLE7=New Kid In Town
TTITLE8=The Long Run
TTITLE9=After The Thrill Is Gone
EXTD=Bill Szymczyk
EXTT0=Felder, Henley, Frey
EXTT1=Henley, Frey, Seger, Souther
EXTT2=Steve Young
EXTT3=Felder, Henley, Frey, Souther
EXTT4=Henley, Frey, Walsh, Souther
EXTT5=Henley, Frey, Walsh
EXTT6=Schmit, Henley, Frey
EXTT7=Henley, Frey, Souther
EXTT8=Henley, Frey
EXTT9=Henley, Frey
PLAYORDER=
